HIERARCHY
ROOT hip
{
	OFFSET 0.000000 0.000000 0.000000 
	CHANNELS 6 Xposition Yposition Zposition Xrotation Zrotation Yrotation
	JOINT abdomen
	{
		OFFSET 0.000000 3.402643 0.000000 
		CHANNELS 3 Xrotation Zrotation Yrotation
		JOINT chest
		{
			OFFSET 0.000000 8.438565 -0.680529 
			CHANNELS 3 Xrotation Zrotation Yrotation
			JOINT neck
			{
				OFFSET 0.000000 10.207942 -0.272212 
				CHANNELS 3 Xrotation Zrotation Yrotation
				JOINT head
				{
					OFFSET 0.000000 3.130431 0.000000 
					CHANNELS 3 Xrotation Zrotation Yrotation
					End Site
					{
						OFFSET 0.000000 3.130435 0.000000 
					}
				}
			}
			JOINT lCollar
			{
				OFFSET 3.470700 6.669187 -0.816635 
				CHANNELS 3 Yrotation Zrotation Xrotation
				JOINT lShldr
				{
					OFFSET 3.198488 0.000000 0.000000 
					CHANNELS 3 Zrotation Yrotation Xrotation
					JOINT lForeArm
					{
						OFFSET 10.139888 0.000000 0.000000 
						CHANNELS 3 Yrotation Zrotation Xrotation
						JOINT lHand
						{
							OFFSET 8.370511 0.000000 0.000000 
							CHANNELS 3 Zrotation Yrotation Xrotation
							End Site
							{
								OFFSET 4.083176 0.000000 0.000000 
							}
						}
					}
				}
			}
			JOINT rCollar
			{
				OFFSET -3.470700 6.669187 -0.816635 
				CHANNELS 3 Yrotation Zrotation Xrotation
				JOINT rShldr
				{
					OFFSET -3.198488 0.000000 0.000000 
					CHANNELS 3 Zrotation Yrotation Xrotation
					JOINT rForeArm
					{
						OFFSET -10.139888 0.000000 0.000000 
						CHANNELS 3 Yrotation Zrotation Xrotation
						JOINT rHand
						{
							OFFSET -8.370511 0.000000 0.000000 
							CHANNELS 3 Zrotation Yrotation Xrotation
							End Site
							{
								OFFSET -4.083176 0.000000 0.000000 
							}
						}
					}
				}
			}
		}
	}
	JOINT lThigh
	{
		OFFSET 5.308129 -1.633274 1.361059 
		CHANNELS 3 Xrotation Zrotation Yrotation
		JOINT lShin
		{
			OFFSET -2.041588 -20.007561 0.000000 
			CHANNELS 3 Xrotation Zrotation Yrotation
			JOINT lFoot
			{
				OFFSET 0.000000 -19.190928 -1.224953 
				CHANNELS 3 Xrotation Yrotation Zrotation
				End Site
				{
					OFFSET 0.000000 -2.449906 4.627600 
				}
			}
		}
	}
	JOINT rThigh
	{
		OFFSET -5.308129 -1.633274 1.361059 
		CHANNELS 3 Xrotation Zrotation Yrotation
		JOINT rShin
		{
			OFFSET 2.041588 -20.007561 0.000000 
			CHANNELS 3 Xrotation Zrotation Yrotation
			JOINT rFoot
			{
				OFFSET 0.000000 -19.190928 -1.224953 
				CHANNELS 3 Xrotation Yrotation Zrotation
				End Site
				{
					OFFSET 0.000000 -2.449906 4.627600 
				}
			}
		}
	}
}
MOTION
Frames: 20
Frame Time: 0.033333
2.374279 45.082699 -0.537601 3.789063 4.853515 8.457032 10.370376 -8.712459 -6.345483 -8.642578 5.966797 5.517578 -9.530245 -3.757260 -7.692884 1.513672 -1.396484 -8.535193 2.000000 -2.000000 0.000000 32.587887 -21.669922 -63.535156 3.117127 -1.307830 2.439361 1.580620 34.206543 40.782623 -2.000000 2.000000 0.000000 -22.500000 -1.396484 -38.808594 -3.234315 1.307830 2.439138 10.551376 -18.582319 24.846851 -23.338348 9.735804 5.228254 44.609379 -2.802555 -3.320726 -22.866707 0.357939 -8.775398 -17.527426 -22.467978 -1.917742 45.799450 2.519042 -18.804710 -23.453737 -2.555676 22.293432 
2.814981 44.963905 -0.510797 3.740235 5.214844 9.073153 10.370376 -8.712459 -6.345483 -8.193358 5.380860 5.664978 -9.511396 -3.762574 -7.662471 1.962891 -1.552734 -8.476563 2.000000 -2.000000 0.000000 32.333984 -21.650393 -63.509460 3.107362 -1.307830 2.439362 0.906967 33.444603 40.696068 -2.000000 2.000000 0.000000 -20.410158 -3.056640 -38.486328 -3.244094 1.317578 2.439726 9.701741 -16.931728 24.581335 -23.809917 8.336327 4.420967 45.671860 -2.734622 -2.216983 -23.424314 0.419549 -8.537279 -17.203087 -23.587915 -2.122886 45.983398 2.508570 -18.736849 -23.457218 -2.501399 22.979183 
3.444198 44.710331 -0.487264 3.701172 5.869141 9.483420 10.370376 -8.712459 -6.345483 -7.783203 4.570313 5.850388 -9.497610 -3.677597 -7.358631 2.343750 -1.601563 -8.154297 2.000000 -2.000000 0.000000 30.478521 -20.625000 -60.765152 3.136658 -1.307830 2.439361 0.034324 32.341518 37.948982 -2.000000 2.000000 0.000000 -18.906250 -3.476562 -38.701172 -3.244094 1.317578 2.439726 9.752257 -14.324695 23.646988 -24.382238 6.571756 3.675041 47.357944 -2.637201 -1.242565 -24.535791 0.372197 -8.246707 -17.290489 -25.296072 -2.158547 46.859772 2.431827 -18.295376 -23.647293 -2.627188 23.902719 
4.042455 44.462044 -0.553458 5.527344 5.166016 9.688379 10.370376 -8.712459 -6.345483 -9.550780 5.107422 5.577042 -9.615789 -3.341430 -6.697546 2.939453 -1.962891 -7.275392 2.000000 -2.000000 0.000000 29.414063 -20.273438 -61.292442 3.117127 -1.307830 2.439361 0.925672 31.266865 39.757553 -2.000000 2.000000 0.000000 -15.771484 -4.570313 -38.252731 -3.253860 1.317578 2.439726 8.961983 -11.923490 23.073940 -27.345287 5.906109 2.977739 49.364796 -2.529845 -0.333535 -25.608187 0.465913 -7.928747 -19.165373 -25.716385 -1.755468 47.137558 2.450776 -18.395050 -23.503235 -2.726362 24.888727 
4.938835 44.426426 -0.346195 4.492187 5.732421 9.218749 10.370376 -8.712459 -6.345483 -8.251954 4.423829 5.830078 -9.591269 -2.937859 -5.720327 3.427734 -1.474609 -6.308595 2.000000 -2.000000 0.000000 25.644533 -18.535156 -58.909351 3.126893 -1.307830 2.439362 0.131069 26.628536 38.631634 -2.000000 2.000000 0.000000 -10.878907 -6.064454 -36.171875 -3.302701 1.327326 2.440313 7.961316 -6.766977 20.306919 -26.053490 4.091733 2.546186 49.930809 -2.500418 1.392472 -26.479755 0.384241 -7.616436 -17.311319 -27.611448 -2.619585 45.990234 2.517024 -17.728273 -22.708534 -2.313348 25.605089 
5.801740 44.419003 -0.243255 5.195313 5.068360 9.873910 10.370376 -8.712459 -6.345483 -8.779296 5.078125 5.645396 -9.627817 -2.962567 -5.884980 3.847656 -2.412109 -6.230469 2.000000 -2.000000 0.000000 21.748049 -17.558594 -57.444355 3.146438 -1.317578 2.439950 0.659939 24.313782 37.119640 -2.000000 2.000000 0.000000 -5.205078 -8.671875 -35.284676 -3.322465 1.336486 2.450645 7.733140 -0.915052 17.865698 -26.898777 3.368319 2.362809 50.620552 -2.452275 0.695454 -27.332254 0.175142 -6.275391 -16.522268 -28.092878 -3.274706 44.243645 2.615483 -18.030136 -21.723900 -2.125187 26.451878 
7.108494 45.664726 0.125843 2.978516 4.853516 12.090671 10.370376 -8.712459 -6.345483 -5.751954 5.888672 5.800781 -9.431869 -3.491198 -7.169344 3.388672 -3.349609 -7.324221 2.000000 -2.000000 0.000000 16.425781 -18.408203 -56.829254 3.146438 -1.317578 2.439950 -0.734105 20.008572 35.645210 -2.000000 2.000000 0.000000 1.806641 -13.037110 -36.447514 -3.312700 1.336486 2.450645 7.599154 8.236880 20.574322 -21.634569 1.591526 1.421281 45.256451 -2.763284 0.602680 -25.267580 -0.627616 -4.191462 -2.246488 -28.199221 -10.301343 26.421030 3.432150 -19.866215 -13.445121 -0.226283 25.114632 
8.221701 44.646400 -0.073618 5.087891 6.523438 12.032360 10.370376 -8.712459 -6.345483 -7.246093 3.876954 5.986989 -9.545703 -3.145705 -6.183316 3.847656 -2.626953 -6.533205 2.000000 -2.000000 0.000000 9.892578 -16.992189 -53.925781 3.175748 -1.327326 2.440539 -1.501605 15.049282 32.995586 -2.000000 2.000000 0.000000 10.957031 -16.054688 -34.894062 -0.402489 1.297494 2.448297 6.589189 12.307792 18.037697 -25.424511 -2.382872 1.061875 49.511410 -2.453607 2.946282 -27.620138 -0.307872 -4.070253 -10.448073 -32.659149 -7.029109 37.574844 2.928064 -20.205551 -17.022467 -1.213023 28.903957 
9.404752 44.267487 0.078148 4.277344 7.392579 11.475866 10.370376 -8.712459 -6.345483 -6.123047 3.037110 6.259766 -9.477590 -3.195441 -6.185719 4.726562 -2.207031 -6.689453 2.000000 -2.000000 0.000000 2.158203 -14.970704 -50.598225 3.195293 -1.337074 2.441127 -4.335796 7.628990 29.918041 -2.000000 2.000000 0.000000 19.902346 -15.488280 -36.164715 3.825692 1.218336 2.463092 4.804311 12.690950 17.521254 -24.808226 -4.598795 1.769994 51.140736 -2.382720 3.985911 -29.051222 -0.129985 -3.103229 -9.735785 -34.849434 -6.681175 38.348694 2.903475 -20.352926 -16.075424 -2.141119 30.504911 
10.392366 43.973392 0.009564 3.867187 7.568360 10.703124 10.370376 -8.712459 -6.345483 -4.804687 2.939453 6.416517 -9.443775 -3.031101 -5.814922 3.593750 -3.652344 -5.908203 2.000000 -2.000000 0.000000 -7.421875 -11.679688 -46.640625 3.234369 -1.346822 2.441716 -7.006124 0.488889 25.459555 -2.000000 2.000000 0.000000 27.753904 -13.574219 -34.609379 4.538594 1.208588 2.462505 4.513627 13.659420 16.276169 -24.887060 -6.024526 2.317536 52.421337 -2.304621 4.628025 -30.087086 0.051703 -2.102560 -11.893118 -34.651680 -3.988513 41.164497 2.739206 -28.660252 -11.468499 -3.501937 33.379745 
11.529487 44.069157 0.240612 2.919922 7.578061 11.710365 10.370376 -8.712459 -6.345483 -3.173827 3.203125 6.543514 -9.372566 -3.121010 -6.019166 3.466797 -4.013671 -6.054688 2.000000 -2.000000 0.000000 -16.054688 -11.289560 -41.702221 3.273445 -1.356570 2.442305 -7.531334 -6.118248 22.413406 -2.000000 2.000000 0.000000 36.533203 -14.364112 -35.868626 5.807944 1.178756 2.470489 7.980880 14.317722 19.775152 -22.799461 -7.156748 2.814479 51.609882 -2.419819 2.965040 -30.438988 -0.252285 0.142895 -11.073690 -33.142372 -2.844013 42.116318 2.666845 -33.931641 -8.613143 -5.458923 34.485950 
12.537739 43.961060 0.351731 3.789063 7.978515 14.218750 10.370376 -8.712459 -6.345483 -3.417970 3.193359 6.523438 -9.284998 -3.920941 -7.796744 4.287109 -5.273438 -7.735271 2.000000 -2.000000 0.000000 -23.369141 -15.205080 -38.781857 3.263680 -1.356570 2.442305 -8.252110 -10.701785 24.110020 -2.000000 2.000000 0.000000 45.507813 -14.570313 -39.628906 2.312226 1.228671 2.453933 8.214236 19.784590 25.017836 -23.040653 -9.422157 2.437453 51.537777 -2.372664 1.838098 -30.679184 -0.528497 2.027496 -16.001764 -30.792959 0.211002 47.604900 2.380951 -32.673862 -13.004021 -6.276397 33.392391 
13.383405 44.136612 0.745242 2.978516 6.728516 15.860518 10.370376 -8.712459 -6.345483 -2.363281 4.248047 6.484375 -9.248497 -3.798308 -7.636733 5.244141 -4.365234 -7.793714 2.000000 -2.000000 0.000000 -30.703125 -17.314453 -34.299778 3.273445 -1.356570 2.442305 -9.597118 -14.614303 24.125965 -2.000000 2.000000 0.000000 53.291019 -14.433594 -40.852039 1.394257 1.228671 2.453933 9.352140 19.197235 29.995533 -20.760973 -8.485322 3.369308 50.608234 -2.487754 -1.170072 -31.108063 -0.823731 4.473685 -19.068476 -24.946657 1.288495 51.877823 2.107296 -25.564186 -19.874325 -6.555267 27.789356 
14.335281 44.221680 0.816344 2.871094 6.865235 19.775393 10.370376 -8.712459 -6.345483 -1.054687 4.638672 6.573055 -9.046435 -4.758616 -9.836564 5.000000 -3.769531 -10.391267 2.000000 -2.000000 0.000000 -36.777340 -25.839844 -30.990583 3.234369 -1.346822 2.441716 -10.350702 -13.912573 26.649185 -2.000000 2.000000 0.000000 61.357418 -15.068358 -46.181641 -0.548896 1.239007 2.444775 8.830395 21.468264 35.588081 -19.144766 -9.743116 3.118688 49.524910 -2.556350 -5.013752 -30.536652 -1.359389 7.467727 -24.836655 -20.180479 2.334946 58.227501 1.736170 -20.241856 -20.891085 -4.637535 21.724369 
15.321009 44.212746 1.196012 3.789063 6.445312 22.382813 10.370376 -8.712459 -6.345483 -1.796875 4.951172 6.464844 -8.943225 -5.379734 -11.228245 5.273437 -2.958984 -12.158204 2.000000 -2.000000 0.000000 -43.271481 -31.982418 -26.382124 3.165983 -1.327326 2.440539 -11.355342 -13.597823 32.899399 -2.000000 2.000000 0.000000 67.265625 -14.267578 -50.029293 -2.326046 1.259090 2.436203 6.733634 20.090134 38.423054 -18.674286 -10.504440 3.506404 48.854279 -2.617416 -8.145187 -30.467274 -1.728508 10.014972 -28.520782 -14.909843 1.401184 58.033009 1.757890 -16.540745 -24.884144 -8.342161 13.478307 
16.060461 43.971001 1.531006 4.589843 5.136719 25.234379 10.370376 -8.712459 -6.345483 -2.421875 5.664063 6.309557 -8.897153 -5.744965 -12.162921 4.482422 -2.187500 -13.379280 2.000000 -2.000000 0.000000 -50.341801 -37.910156 -20.488281 3.126893 -1.307830 2.439362 -12.402311 -14.219080 36.877865 -2.000000 2.000000 0.000000 71.318359 -14.121095 -53.420349 -3.097530 1.259090 2.436203 9.762807 20.247652 41.420280 -19.057749 -10.037085 3.964491 49.914448 -2.556625 -7.285434 -32.204758 -1.597360 10.126877 -32.889702 -9.999662 0.562738 57.782791 1.827567 -10.490954 -26.135012 -5.667870 5.318772 
17.062550 43.798721 1.984167 4.423828 5.966797 28.106483 10.370376 -8.712459 -6.345483 -1.679686 5.429688 6.426705 -8.588797 -6.928123 -14.780941 4.736328 -2.119127 -16.337795 2.000000 -2.000000 0.000000 -58.154301 -44.746094 -15.019529 3.058507 -1.288334 2.438184 -14.542327 -13.816840 41.681427 -2.000000 2.000000 0.000000 74.179688 -13.330077 -58.154293 -3.009601 1.229846 2.434442 9.969610 20.059843 47.867126 -17.245867 -10.936694 3.087419 50.147873 -2.567181 -11.625288 -32.170418 -3.382890 12.552338 -35.069870 -9.275232 0.543113 57.759945 1.866383 -3.562959 -24.172554 -2.716959 0.325310 
18.209232 43.775566 2.543413 3.603516 6.621094 31.572269 10.370376 -8.712459 -6.345483 -0.273437 5.683594 6.553701 -8.311052 -7.635524 -16.460608 5.312500 -1.298828 -18.398664 2.000000 -2.000000 0.000000 -69.531250 -53.955078 -9.648438 2.941255 -1.239594 2.435241 -15.900214 -7.846605 47.703316 -2.000000 2.000000 0.000000 76.113281 -13.427734 -61.298824 -2.911908 1.200602 2.432681 10.282749 18.845331 54.014507 -12.665960 -13.231968 3.022052 47.757015 -2.723276 -14.546464 -31.830185 -2.881739 16.360958 -35.520321 -5.858249 -0.469673 55.190193 2.002242 -12.004372 -20.311558 -1.734807 -0.904735 
19.179733 43.444725 2.882182 5.214844 4.511719 34.912880 10.370376 -8.712459 -6.345483 -2.587890 7.500000 6.046196 -8.107157 -8.553782 -18.737654 5.859375 -0.273438 -21.103533 2.000000 -2.000000 0.000000 -84.316406 -58.886723 0.558045 2.863092 -1.210350 2.433474 -17.701488 -5.421334 51.786484 -2.000000 2.000000 0.000000 76.894531 -13.769532 -64.755852 -2.873040 1.180519 2.441252 12.049294 18.618715 56.590801 -14.232292 -12.779593 1.143351 49.374233 -2.600172 -13.989475 -33.465691 -4.391387 16.340891 -40.026318 -2.646092 -1.107316 52.455795 2.108451 -24.643394 -16.198776 -1.006273 -0.775527 
20.430864 43.293839 3.581996 4.707031 3.593750 35.518192 10.370376 -8.712459 -6.345483 -2.988280 9.082031 5.802322 -7.992213 -8.880905 -19.723230 6.337891 0.087891 -22.197252 2.000000 -2.000000 0.000000 -96.943359 -59.785156 11.738281 2.804693 -1.190267 2.442042 -19.210741 -6.827644 53.874603 -2.000000 2.000000 0.000000 76.660156 -14.423830 -64.709465 -2.843500 1.161611 2.430332 12.617535 18.728334 58.219543 -11.519692 -13.014705 1.158464 47.996788 -2.695530 -14.725587 -34.245960 -4.567992 18.374048 -40.883270 0.820395 -1.769922 47.770950 2.324342 -36.595779 -12.893219 0.344037 -2.649280 
